<mxfile host="Electron" modified="2024-05-07T10:15:02.795Z" agent="Mozilla/5.0 (Macintosh; Intel Mac OS X 10_15_7) AppleWebKit/537.36 (KHTML, like Gecko) draw.io/24.0.4 Chrome/120.0.6099.109 Electron/28.1.0 Safari/537.36" etag="guQhemZ9CA7gAW701yLI" version="24.0.4" type="device">
  <diagram name="Page-1" id="m2fciKt5aA7fwt5xbh1i">
    <mxGraphModel dx="2612" dy="3304" grid="1" gridSize="10" guides="1" tooltips="1" connect="1" arrows="1" fold="1" page="1" pageScale="1" pageWidth="827" pageHeight="1169" math="0" shadow="0">
      <root>
        <mxCell id="0" />
        <mxCell id="1" parent="0" />
        <mxCell id="yKtk120IvZhd8T5jKp_Z-1" style="edgeStyle=orthogonalEdgeStyle;rounded=0;orthogonalLoop=1;jettySize=auto;html=1;" edge="1" parent="1" source="yKtk120IvZhd8T5jKp_Z-18" target="yKtk120IvZhd8T5jKp_Z-6">
          <mxGeometry relative="1" as="geometry">
            <mxPoint x="-102" y="124" as="sourcePoint" />
          </mxGeometry>
        </mxCell>
        <mxCell id="yKtk120IvZhd8T5jKp_Z-2" value="Zoeken op PS(BSN)@[NVI, OTV] + Toestemming" style="rounded=0;orthogonalLoop=1;jettySize=auto;html=1;entryX=0;entryY=0.5;entryDx=0;entryDy=0;entryPerimeter=0;" edge="1" parent="1" source="yKtk120IvZhd8T5jKp_Z-6" target="yKtk120IvZhd8T5jKp_Z-7">
          <mxGeometry relative="1" as="geometry" />
        </mxCell>
        <mxCell id="yKtk120IvZhd8T5jKp_Z-3" value="Opvragen van de dossier gegevens voor PS(BSN)@DossierHouder of BSN" style="edgeStyle=orthogonalEdgeStyle;rounded=0;orthogonalLoop=1;jettySize=auto;html=1;" edge="1" parent="1" source="yKtk120IvZhd8T5jKp_Z-6" target="yKtk120IvZhd8T5jKp_Z-12">
          <mxGeometry x="-0.0008" relative="1" as="geometry">
            <Array as="points">
              <mxPoint x="155" y="-232" />
              <mxPoint x="1158" y="-232" />
            </Array>
            <mxPoint as="offset" />
          </mxGeometry>
        </mxCell>
        <mxCell id="yKtk120IvZhd8T5jKp_Z-4" style="edgeStyle=orthogonalEdgeStyle;rounded=0;orthogonalLoop=1;jettySize=auto;html=1;" edge="1" parent="1" source="yKtk120IvZhd8T5jKp_Z-6" target="yKtk120IvZhd8T5jKp_Z-17">
          <mxGeometry relative="1" as="geometry" />
        </mxCell>
        <mxCell id="yKtk120IvZhd8T5jKp_Z-5" value="Opvragen toestemming&amp;nbsp;&lt;div&gt;voor PS(BSN)@OTV&lt;/div&gt;" style="edgeLabel;html=1;align=center;verticalAlign=middle;resizable=0;points=[];" vertex="1" connectable="0" parent="yKtk120IvZhd8T5jKp_Z-4">
          <mxGeometry x="-0.0685" relative="1" as="geometry">
            <mxPoint as="offset" />
          </mxGeometry>
        </mxCell>
        <object placeholders="1" c4Name="Raadplegend EPD" c4Type="Software System" c4Description="Heeft patienten in zorg. Bevat pseudoniemen. Kan gegevens lokaliseren en raadplegen bij andere bronnen." label="&lt;font style=&quot;font-size: 16px&quot;&gt;&lt;b&gt;%c4Name%&lt;/b&gt;&lt;/font&gt;&lt;div&gt;[%c4Type%]&lt;/div&gt;&lt;br&gt;&lt;div&gt;&lt;font style=&quot;font-size: 11px&quot;&gt;&lt;font color=&quot;#cccccc&quot;&gt;%c4Description%&lt;/font&gt;&lt;/div&gt;" id="yKtk120IvZhd8T5jKp_Z-6">
          <mxCell style="rounded=1;whiteSpace=wrap;html=1;labelBackgroundColor=none;fillColor=#8C8496;fontColor=#ffffff;align=center;arcSize=10;strokeColor=#736782;metaEdit=1;resizable=0;points=[[0.25,0,0],[0.5,0,0],[0.75,0,0],[1,0.25,0],[1,0.5,0],[1,0.75,0],[0.75,1,0],[0.5,1,0],[0.25,1,0],[0,0.75,0],[0,0.5,0],[0,0.25,0]];" vertex="1" parent="1">
            <mxGeometry x="35" y="64" width="240" height="120" as="geometry" />
          </mxCell>
        </object>
        <object placeholders="1" c4Name="NationaleVerwijsIndex (NVI)" c4Type="Software System" c4Description="Landelijke dienst. Bevat combinaties van PS(BSN)-DossierHouder" label="&lt;font style=&quot;font-size: 16px&quot;&gt;&lt;b&gt;%c4Name%&lt;/b&gt;&lt;/font&gt;&lt;div&gt;[%c4Type%]&lt;/div&gt;&lt;br&gt;&lt;div&gt;&lt;font style=&quot;font-size: 11px&quot;&gt;&lt;font color=&quot;#cccccc&quot;&gt;%c4Description%&lt;/font&gt;&lt;/div&gt;" id="yKtk120IvZhd8T5jKp_Z-7">
          <mxCell style="rounded=1;whiteSpace=wrap;html=1;labelBackgroundColor=none;fillColor=#1061B0;fontColor=#ffffff;align=center;arcSize=10;strokeColor=#0D5091;metaEdit=1;resizable=0;points=[[0.25,0,0],[0.5,0,0],[0.75,0,0],[1,0.25,0],[1,0.5,0],[1,0.75,0],[0.75,1,0],[0.5,1,0],[0.25,1,0],[0,0.75,0],[0,0.5,0],[0,0.25,0]];" vertex="1" parent="1">
            <mxGeometry x="476" y="265" width="240" height="120" as="geometry" />
          </mxCell>
        </object>
        <object placeholders="1" c4Name="LokalisatieMetadataRegister (LMR)" c4Type="Software System" c4Description="Bevat triple PS(BSN)-MetaData-Dataset. Regionale, lokale of sectorale dienst." label="&lt;font style=&quot;font-size: 16px&quot;&gt;&lt;b&gt;%c4Name%&lt;/b&gt;&lt;/font&gt;&lt;div&gt;[%c4Type%]&lt;/div&gt;&lt;br&gt;&lt;div&gt;&lt;font style=&quot;font-size: 11px&quot;&gt;&lt;font color=&quot;#cccccc&quot;&gt;%c4Description%&lt;/font&gt;&lt;/div&gt;" id="yKtk120IvZhd8T5jKp_Z-8">
          <mxCell style="rounded=1;whiteSpace=wrap;html=1;labelBackgroundColor=none;fillColor=#1061B0;fontColor=#ffffff;align=center;arcSize=10;strokeColor=#0D5091;metaEdit=1;resizable=0;points=[[0.25,0,0],[0.5,0,0],[0.75,0,0],[1,0.25,0],[1,0.5,0],[1,0.75,0],[0.75,1,0],[0.5,1,0],[0.25,1,0],[0,0.75,0],[0,0.5,0],[0,0.25,0]];" vertex="1" parent="1">
            <mxGeometry x="476" y="-145" width="240" height="120" as="geometry" />
          </mxCell>
        </object>
        <mxCell id="yKtk120IvZhd8T5jKp_Z-9" value="Aanmelden van PS(BSN)@LMR + Metadata" style="rounded=0;orthogonalLoop=1;jettySize=auto;html=1;entryX=1;entryY=0.5;entryDx=0;entryDy=0;entryPerimeter=0;" edge="1" parent="1" source="yKtk120IvZhd8T5jKp_Z-12" target="yKtk120IvZhd8T5jKp_Z-8">
          <mxGeometry x="-0.005" relative="1" as="geometry">
            <mxPoint as="offset" />
          </mxGeometry>
        </mxCell>
        <mxCell id="yKtk120IvZhd8T5jKp_Z-10" value="Aanvragen pseudoniemen voor PS(BSN)@[NVI, LMR, OTV]" style="rounded=0;orthogonalLoop=1;jettySize=auto;html=1;entryX=1;entryY=0.5;entryDx=0;entryDy=0;entryPerimeter=0;" edge="1" parent="1" source="yKtk120IvZhd8T5jKp_Z-12" target="yKtk120IvZhd8T5jKp_Z-13">
          <mxGeometry relative="1" as="geometry" />
        </mxCell>
        <mxCell id="yKtk120IvZhd8T5jKp_Z-11" value="Controleren toestemming PS(BSN)@OTV" style="rounded=0;orthogonalLoop=1;jettySize=auto;html=1;" edge="1" parent="1" source="yKtk120IvZhd8T5jKp_Z-12" target="yKtk120IvZhd8T5jKp_Z-17">
          <mxGeometry relative="1" as="geometry" />
        </mxCell>
        <object placeholders="1" c4Name="DossierHouder" c4Type="Software System" c4Description="Bevat data(sets) en APIs voor bevraging. Bevat pseudoniemen van alle BSNs met dossier." label="&lt;font style=&quot;font-size: 16px&quot;&gt;&lt;b&gt;%c4Name%&lt;/b&gt;&lt;/font&gt;&lt;div&gt;[%c4Type%]&lt;/div&gt;&lt;br&gt;&lt;div&gt;&lt;font style=&quot;font-size: 11px&quot;&gt;&lt;font color=&quot;#cccccc&quot;&gt;%c4Description%&lt;/font&gt;&lt;/div&gt;" id="yKtk120IvZhd8T5jKp_Z-12">
          <mxCell style="rounded=1;whiteSpace=wrap;html=1;labelBackgroundColor=none;fillColor=#8C8496;fontColor=#ffffff;align=center;arcSize=10;strokeColor=#736782;metaEdit=1;resizable=0;points=[[0.25,0,0],[0.5,0,0],[0.75,0,0],[1,0.25,0],[1,0.5,0],[1,0.75,0],[0.75,1,0],[0.5,1,0],[0.25,1,0],[0,0.75,0],[0,0.5,0],[0,0.25,0]];" vertex="1" parent="1">
            <mxGeometry x="1038" y="64" width="240" height="120" as="geometry" />
          </mxCell>
        </object>
        <object placeholders="1" c4Name="BSNk" c4Type="Software System" c4Description="Kan BSNs omzetten in PolyPseudoniemen voor specifiek verwerkers." label="&lt;font style=&quot;font-size: 16px&quot;&gt;&lt;b&gt;%c4Name%&lt;/b&gt;&lt;/font&gt;&lt;div&gt;[%c4Type%]&lt;/div&gt;&lt;br&gt;&lt;div&gt;&lt;font style=&quot;font-size: 11px&quot;&gt;&lt;font color=&quot;#cccccc&quot;&gt;%c4Description%&lt;/font&gt;&lt;/div&gt;" id="yKtk120IvZhd8T5jKp_Z-13">
          <mxCell style="rounded=1;whiteSpace=wrap;html=1;labelBackgroundColor=none;fillColor=#8C8496;fontColor=#ffffff;align=center;arcSize=10;strokeColor=#736782;metaEdit=1;resizable=0;points=[[0.25,0,0],[0.5,0,0],[0.75,0,0],[1,0.25,0],[1,0.5,0],[1,0.75,0],[0.75,1,0],[0.5,1,0],[0.25,1,0],[0,0.75,0],[0,0.5,0],[0,0.25,0]];" vertex="1" parent="1">
            <mxGeometry x="476" y="470" width="240" height="120" as="geometry" />
          </mxCell>
        </object>
        <mxCell id="yKtk120IvZhd8T5jKp_Z-14" value="Aanvragen pseudoniemen&lt;div&gt;voor PS(BSN)@[NVI, LMR, OTV]&lt;/div&gt;" style="rounded=0;orthogonalLoop=1;jettySize=auto;html=1;entryX=0;entryY=0.5;entryDx=0;entryDy=0;entryPerimeter=0;exitX=0.5;exitY=1;exitDx=0;exitDy=0;exitPerimeter=0;" edge="1" parent="1" source="yKtk120IvZhd8T5jKp_Z-6" target="yKtk120IvZhd8T5jKp_Z-13">
          <mxGeometry x="-0.0025" relative="1" as="geometry">
            <mxPoint as="offset" />
          </mxGeometry>
        </mxCell>
        <mxCell id="yKtk120IvZhd8T5jKp_Z-15" value="Zoeken op PS(BSN)@[LMR, OTV] +&amp;nbsp;&lt;div&gt;Toestemming + Metadata query&lt;/div&gt;" style="rounded=0;orthogonalLoop=1;jettySize=auto;html=1;entryX=0;entryY=0.5;entryDx=0;entryDy=0;entryPerimeter=0;" edge="1" parent="1" source="yKtk120IvZhd8T5jKp_Z-6" target="yKtk120IvZhd8T5jKp_Z-8">
          <mxGeometry relative="1" as="geometry" />
        </mxCell>
        <mxCell id="yKtk120IvZhd8T5jKp_Z-16" value="Aanmelden op PS(BSN)@NVI" style="rounded=0;orthogonalLoop=1;jettySize=auto;html=1;entryX=1;entryY=0.5;entryDx=0;entryDy=0;entryPerimeter=0;" edge="1" parent="1" source="yKtk120IvZhd8T5jKp_Z-12" target="yKtk120IvZhd8T5jKp_Z-7">
          <mxGeometry relative="1" as="geometry" />
        </mxCell>
        <object placeholders="1" c4Name="OTV" c4Type="Software System" c4Description="Bevat toestemmingen voor PS(BSN) en Organisatiecategorie" label="&lt;font style=&quot;font-size: 16px&quot;&gt;&lt;b&gt;%c4Name%&lt;/b&gt;&lt;/font&gt;&lt;div&gt;[%c4Type%]&lt;/div&gt;&lt;br&gt;&lt;div&gt;&lt;font style=&quot;font-size: 11px&quot;&gt;&lt;font color=&quot;#cccccc&quot;&gt;%c4Description%&lt;/font&gt;&lt;/div&gt;" id="yKtk120IvZhd8T5jKp_Z-17">
          <mxCell style="rounded=1;whiteSpace=wrap;html=1;labelBackgroundColor=none;fillColor=#1061B0;fontColor=#ffffff;align=center;arcSize=10;strokeColor=#0D5091;metaEdit=1;resizable=0;points=[[0.25,0,0],[0.5,0,0],[0.75,0,0],[1,0.25,0],[1,0.5,0],[1,0.75,0],[0.75,1,0],[0.5,1,0],[0.25,1,0],[0,0.75,0],[0,0.5,0],[0,0.25,0]];" vertex="1" parent="1">
            <mxGeometry x="476" y="64" width="240" height="120" as="geometry" />
          </mxCell>
        </object>
        <object placeholders="1" c4Name="Zorgverlener" c4Type="Person" c4Description="Heeft een informatiebehoefte voor een patient met BSN." label="&lt;font style=&quot;font-size: 16px&quot;&gt;&lt;b&gt;%c4Name%&lt;/b&gt;&lt;/font&gt;&lt;div&gt;[%c4Type%]&lt;/div&gt;&lt;br&gt;&lt;div&gt;&lt;font style=&quot;font-size: 11px&quot;&gt;&lt;font color=&quot;#cccccc&quot;&gt;%c4Description%&lt;/font&gt;&lt;/div&gt;" id="yKtk120IvZhd8T5jKp_Z-18">
          <mxCell style="html=1;fontSize=11;dashed=0;whiteSpace=wrap;fillColor=#6C6477;strokeColor=#4D4D4D;fontColor=#ffffff;shape=mxgraph.c4.person2;align=center;metaEdit=1;points=[[0.5,0,0],[1,0.5,0],[1,0.75,0],[0.75,1,0],[0.5,1,0],[0.25,1,0],[0,0.75,0],[0,0.5,0]];resizable=0;" vertex="1" parent="1">
            <mxGeometry x="-327" y="34" width="200" height="180" as="geometry" />
          </mxCell>
        </object>
      </root>
    </mxGraphModel>
  </diagram>
</mxfile>
